<?xml version="1.0" encoding="UTF-8"?>
<svg xmlns="http://www.w3.org/2000/svg" xmlns:xlink="http://www.w3.org/1999/xlink" width="38px" height="43px" viewBox="0 0 38 43" version="1.1">
<defs>
<linearGradient id="linear0" gradientUnits="userSpaceOnUse" x1="46.088" y1="281.107" x2="375.889" y2="281.107" gradientTransform="matrix(0.0931211,0,0,0.0920968,0.00328718,0)">
<stop offset="0" style="stop-color:rgb(86.666667%,13.333333%,19.215686%);stop-opacity:1;"/>
<stop offset="1" style="stop-color:rgb(78.039216%,13.333333%,24.313725%);stop-opacity:1;"/>
</linearGradient>
<linearGradient id="linear1" gradientUnits="userSpaceOnUse" x1="46.088" y1="139.933" x2="375.889" y2="139.933" gradientTransform="matrix(0.0931211,0,0,0.0920968,0.00328718,0)">
<stop offset="0" style="stop-color:rgb(78.431373%,12.156863%,26.666667%);stop-opacity:1;"/>
<stop offset="1" style="stop-color:rgb(73.72549%,12.156863%,27.058824%);stop-opacity:1;"/>
</linearGradient>
</defs>
<g id="surface1">
<path style=" stroke:none;fill-rule:nonzero;fill:rgb(50.588235%,11.764706%,33.72549%);fill-opacity:1;" d="M 0.00390625 0.921875 C 0.00390625 0.589844 0.179688 0.292969 0.46875 0.128906 C 0.757812 -0.0351562 1.113281 -0.0351562 1.398438 0.128906 L 37.53125 20.546875 C 37.820312 20.710938 37.996094 21.015625 37.996094 21.339844 C 37.996094 21.671875 37.820312 21.964844 37.53125 22.132812 L 1.585938 42.871094 C 1.296875 43.035156 0.945312 43.035156 0.65625 42.871094 C 0.367188 42.707031 0.191406 42.402344 0.191406 42.078125 Z M 0.00390625 0.921875 "/>
<path style=" stroke:none;fill-rule:nonzero;fill:url(#linear0);" d="M 35.007812 19.414062 L 4.296875 19.414062 L 4.296875 32.371094 L 19.800781 32.371094 L 35.015625 23.59375 L 35.015625 19.414062 Z M 12.453125 29.617188 L 8.804688 29.617188 L 8.804688 27.730469 L 12.445312 27.730469 L 12.445312 29.617188 Z M 12.453125 24.128906 L 8.804688 24.128906 L 8.804688 22.242188 L 12.445312 22.242188 L 12.445312 24.128906 Z M 28.414062 24.128906 L 28.414062 22.242188 L 32.054688 22.242188 L 32.054688 24.128906 Z M 28.414062 24.128906 "/>
<path style=" stroke:none;fill-rule:nonzero;fill:url(#linear1);" d="M 35.007812 6.410156 L 4.296875 6.410156 L 4.296875 19.367188 L 35.007812 19.367188 Z M 12.453125 16.144531 L 8.804688 16.144531 L 8.804688 14.257812 L 12.445312 14.257812 L 12.445312 16.144531 Z M 12.453125 10.65625 L 8.804688 10.65625 L 8.804688 8.769531 L 12.445312 8.769531 L 12.445312 10.65625 Z M 32.054688 16.144531 L 28.414062 16.144531 L 28.414062 14.257812 L 32.054688 14.257812 Z M 32.054688 10.65625 L 28.414062 10.65625 L 28.414062 8.769531 L 32.054688 8.769531 Z M 32.054688 10.65625 "/>
<path style=" stroke:none;fill-rule:nonzero;fill:rgb(98.431373%,98.823529%,99.607843%);fill-opacity:1;" d="M 8.804688 8.769531 L 12.445312 8.769531 L 12.445312 10.65625 L 8.804688 10.65625 Z M 8.804688 14.257812 L 12.445312 14.257812 L 12.445312 16.144531 L 8.804688 16.144531 Z M 28.414062 8.769531 L 32.054688 8.769531 L 32.054688 10.65625 L 28.414062 10.65625 Z M 28.414062 14.257812 L 32.054688 14.257812 L 32.054688 16.144531 L 28.414062 16.144531 Z M 8.804688 22.242188 L 12.445312 22.242188 L 12.445312 24.128906 L 8.804688 24.128906 Z M 8.804688 27.730469 L 12.445312 27.730469 L 12.445312 29.617188 L 8.804688 29.617188 Z M 28.414062 22.242188 L 32.054688 22.242188 L 32.054688 24.128906 L 28.414062 24.128906 Z M 28.414062 22.242188 "/>
</g>
</svg>
